<?xml version="1.0" standalone="no"?>
<!DOCTYPE svg PUBLIC "-//W3C//DTD SVG 20010904//EN"
 "http://www.w3.org/TR/2001/REC-SVG-20010904/DTD/svg10.dtd">
<svg version="1.0" xmlns="http://www.w3.org/2000/svg"
 width="248.000000pt" height="312.000000pt" viewBox="0 0 248.000000 312.000000"
 preserveAspectRatio="xMidYMid meet">

<g transform="translate(0.000000,312.000000) scale(0.100000,-0.100000)"
fill="yellow" stroke="none">
<path d="M599 3005 c-105 -17 -216 -55 -287 -98 -124 -74 -249 -246 -260 -356
-7 -81 37 -138 88 -111 39 21 50 88 29 161 -10 33 -9 42 10 73 32 52 118 125
181 155 99 46 251 36 369 -23 121 -62 298 -286 226 -286 -29 0 -127 -39 -178
-71 -124 -77 -193 -165 -302 -383 l-80 -161 -73 -40 c-197 -107 -277 -245
-251 -429 12 -88 37 -140 90 -191 22 -22 56 -55 74 -73 20 -19 61 -88 101
-170 124 -255 210 -346 440 -460 219 -110 477 -167 724 -161 l145 4 6 -52 c16
-127 93 -244 184 -279 91 -34 205 -4 285 76 93 93 129 190 137 370 4 101 9
129 23 145 41 45 130 200 152 263 20 58 23 86 23 212 -1 176 -9 207 -109 415
-77 157 -89 193 -106 314 -34 234 -158 431 -367 583 -57 42 -97 81 -130 127
-96 134 -242 260 -391 335 -67 34 -208 81 -303 102 -103 22 -342 27 -450 9z
m381 -20 c426 -70 752 -331 870 -697 17 -54 35 -98 39 -98 12 0 -4 87 -31 168
l-24 72 28 -18 c16 -10 60 -47 100 -82 130 -116 222 -292 252 -481 23 -141 27
-152 111 -324 88 -179 104 -235 112 -380 8 -162 -21 -262 -123 -417 -42 -64
-49 -70 -52 -48 -15 120 -71 292 -127 397 l-28 51 36 32 c111 97 132 299 33
324 -37 9 -75 -10 -138 -70 -77 -73 -128 -94 -268 -110 -233 -26 -281 -15
-346 82 -69 102 -128 116 -175 42 -16 -27 -19 -44 -16 -90 8 -92 38 -141 157
-258 l108 -105 18 -80 c14 -62 18 -118 17 -250 -1 -93 -5 -186 -10 -205 l-9
-35 -105 3 c-114 3 -277 27 -324 47 -48 20 -120 101 -209 235 -105 157 -131
210 -146 291 -43 232 89 489 307 600 61 31 74 34 157 34 50 0 108 -3 129 -7
20 -4 37 -3 37 1 0 13 -58 23 -165 27 -55 2 -101 8 -103 13 -3 10 70 21 140
21 32 0 47 4 43 10 -5 7 -45 9 -118 5 -74 -3 -105 -2 -92 4 11 5 41 10 67 10
26 1 50 6 54 13 5 8 -15 10 -77 5 -74 -5 -82 -4 -65 9 19 14 19 14 -2 14 -45
0 -83 103 -83 228 0 124 19 172 104 256 62 61 71 67 80 51 7 -13 6 -21 -5 -29
-27 -21 -48 -61 -48 -93 0 -18 -3 -32 -8 -30 -4 1 -9 -2 -12 -8 -3 -5 7 -11
23 -13 36 -4 87 45 88 85 2 46 -2 67 -17 90 -13 21 -12 24 28 44 88 45 262 2
332 -82 42 -49 43 -26 3 53 -41 83 -218 301 -318 392 -129 117 -282 208 -399
237 -65 16 -229 16 -256 1 -16 -9 -10 -11 31 -12 148 -1 343 -126 408 -260 38
-80 44 -110 21 -109 -13 0 -28 19 -47 60 -41 85 -136 178 -228 222 -225 108
-435 57 -568 -137 -31 -45 -32 -49 -22 -97 22 -103 -30 -177 -65 -93 -13 31
-13 42 1 96 22 88 66 158 143 228 104 96 235 150 417 173 77 10 249 5 335 -8z
m40 -497 c-228 -97 -385 -251 -497 -488 -19 -41 -36 -76 -37 -76 0 -1 -15 -5
-33 -9 l-32 -6 61 128 c100 211 165 296 288 378 89 59 154 84 220 84 48 0 52
-2 30 -11z m-857 -1118 c29 -70 68 -109 185 -189 61 -41 71 -54 52 -66 -16
-10 -11 -45 19 -131 52 -151 160 -279 325 -386 76 -49 83 -56 26 -28 -121 61
-241 160 -303 249 -24 36 -177 317 -177 326 0 2 10 1 23 -2 12 -2 -3 9 -33 27
-74 42 -126 94 -158 160 -36 73 -44 223 -16 285 l18 40 6 -110 c5 -86 13 -124
33 -175z m1675 -311 c65 -67 103 -192 100 -334 l-1 -80 -8 95 c-13 161 -58
283 -126 340 -21 18 -29 27 -17 22 11 -6 35 -25 52 -43z m289 -317 c28 -136
36 -303 16 -323 -20 -20 -36 27 -29 85 8 62 -8 219 -35 338 -24 109 -23 125 3
70 10 -24 31 -101 45 -170z"/>
<path d="M1460 2454 c0 -3 27 -49 59 -102 32 -53 65 -114 72 -134 15 -44 33
-51 23 -10 -22 90 -111 252 -140 252 -8 0 -14 -3 -14 -6z"/>
<path d="M1980 2216 c0 -41 45 -86 64 -65 8 8 7 13 -1 16 -7 3 -13 13 -13 23
0 10 -9 25 -20 33 -11 8 -17 17 -13 20 3 4 1 7 -5 7 -7 0 -12 -15 -12 -34z"/>
<path d="M1924 1828 c-37 -41 -66 -86 -62 -98 2 -5 27 22 56 60 54 73 58 94 6
38z"/>
<path d="M1863 1813 c-37 -53 -80 -163 -64 -163 10 0 96 178 89 185 -3 4 -15
-6 -25 -22z"/>
<path d="M1345 1823 c6 -6 32 -16 59 -23 95 -26 200 -125 257 -242 13 -27 29
-48 36 -48 43 0 -25 127 -112 209 -30 29 -80 63 -110 76 -58 26 -148 45 -130
28z"/>
<path d="M1630 1795 c0 -14 61 -125 69 -125 5 0 12 -13 16 -30 9 -40 25 -48
25 -13 0 34 -23 120 -39 151 -20 38 -31 24 -15 -20 19 -55 13 -57 -15 -2 -20
37 -41 57 -41 39z"/>
<path d="M1999 1755 c-87 -45 -220 -225 -166 -225 6 0 22 19 35 43 54 101 157
187 225 187 15 0 27 5 27 10 0 18 -75 9 -121 -15z"/>
<path d="M1921 1576 c-24 -24 -38 -46 -33 -50 10 -6 82 67 82 84 0 15 -3 13
-49 -34z"/>
<path d="M2141 1604 c-48 -17 -111 -55 -111 -66 0 -12 10 -10 44 11 30 18 72
33 129 45 15 4 25 11 22 16 -8 14 -32 12 -84 -6z"/>
<path d="M1576 1588 l19 -21 -27 18 c-24 15 -28 15 -28 2 0 -17 58 -63 67 -53
4 3 15 -1 25 -11 14 -13 18 -13 18 -2 0 21 -59 89 -77 89 -14 0 -13 -3 3 -22z"/>
<path d="M1943 1556 c-15 -13 -24 -28 -20 -32 4 -4 22 6 40 24 37 37 21 43
-20 8z"/>
<path d="M2170 1574 c-43 -14 -90 -38 -90 -46 0 -11 7 -10 32 3 11 6 41 14 66
18 47 6 72 32 30 30 -12 0 -30 -3 -38 -5z"/>
<path d="M2172 1533 c-25 -10 -2 -18 42 -15 25 2 43 8 40 13 -5 9 -60 11 -82
2z"/>
</g>
</svg>
