<?xml version="1.0" standalone="no"?>
<!DOCTYPE svg PUBLIC "-//W3C//DTD SVG 20010904//EN"
 "http://www.w3.org/TR/2001/REC-SVG-20010904/DTD/svg10.dtd">
<svg version="1.0" xmlns="http://www.w3.org/2000/svg"
 width="247.000000pt" height="312.000000pt" viewBox="0 0 247.000000 312.000000"
 preserveAspectRatio="xMidYMid meet">

<g transform="translate(0.000000,312.000000) scale(0.100000,-0.100000)"
fill="#ef91b3" stroke="none">
<path d="M1580 3026 c-263 -55 -521 -288 -594 -535 -32 -109 -15 -182 75 -322
30 -47 31 -69 4 -69 -19 0 -56 51 -100 138 -20 39 -41 72 -46 72 -20 0 -126
-53 -189 -95 -38 -25 -100 -79 -137 -119 -118 -126 -163 -250 -163 -444 0
-112 -7 -135 -35 -112 -10 8 -15 32 -15 71 0 66 -7 71 -63 43 -134 -69 -187
-182 -187 -405 l0 -82 63 64 c76 76 201 164 222 155 30 -11 14 -36 -52 -79
-84 -55 -182 -154 -217 -218 -53 -97 -71 -278 -40 -409 27 -116 79 -205 174
-301 75 -76 100 -93 191 -137 121 -58 195 -78 334 -92 55 -5 138 -21 185 -35
136 -42 287 -59 393 -46 48 6 110 20 138 31 27 11 66 20 85 20 55 0 223 37
300 66 210 78 363 228 436 428 120 327 48 607 -198 768 -35 23 -64 48 -64 55
0 43 75 9 173 -78 32 -28 60 -49 63 -47 2 3 7 57 11 120 7 133 -2 172 -54 229
-33 36 -111 89 -131 89 -5 0 -12 -34 -14 -75 -3 -77 -15 -102 -42 -92 -13 5
-16 25 -16 111 0 77 -5 121 -21 172 -45 148 -184 328 -309 401 -89 52 -99 51
-139 -7 -42 -62 -134 -148 -168 -156 -36 -10 -50 16 -20 39 79 62 104 87 144
141 l45 61 -6 100 c-9 142 6 262 41 332 33 67 65 92 122 100 35 5 46 2 68 -18
34 -32 60 -90 72 -168 11 -68 45 -124 87 -143 29 -13 55 6 75 53 15 39 -7 124
-57 220 -91 172 -238 243 -424 205z m167 -891 c27 -17 43 -33 43 -45 0 -26
-22 -25 -70 3 -37 20 -50 44 -33 60 10 10 12 9 60 -18z m-850 -12 c5 -14 -85
-82 -109 -83 -24 0 -23 32 2 55 46 41 98 55 107 28z m653 -98 c17 -25 28 -50
25 -55 -12 -20 -41 -9 -62 25 -23 35 -28 56 -16 68 13 13 22 6 53 -38z m-550
-1 c0 -22 -37 -81 -54 -87 -8 -3 -20 0 -26 8 -9 10 -5 23 16 54 27 42 64 56
64 25z m38 -544 c23 -11 56 -34 72 -52 34 -37 50 -96 29 -108 -19 -12 -26 -5
-48 46 -29 64 -83 87 -211 89 -90 0 -95 2 -98 22 -3 18 3 22 35 26 66 8 176
-4 221 -23z m631 21 c8 -5 11 -16 8 -25 -5 -13 -24 -16 -102 -15 -124 1 -178
-23 -213 -91 -26 -52 -46 -58 -50 -15 -5 56 45 112 126 141 42 15 209 18 231
5z m-1366 -44 c-3 -42 -41 -123 -72 -151 -17 -15 -24 -17 -33 -8 -10 10 -5 26
20 71 18 32 32 63 32 69 0 29 21 63 38 60 13 -3 16 -13 15 -41z m1318 -244
c15 -9 31 -24 35 -32 64 -154 -48 -296 -261 -332 -78 -13 -259 -7 -345 12 -77
16 -158 60 -207 111 -76 78 -90 155 -36 198 33 26 72 25 134 -2 48 -20 59 -21
256 -14 193 7 208 9 253 32 89 46 128 52 171 27z m-1351 -307 c0 -41 41 -178
69 -235 16 -31 43 -69 60 -85 35 -34 41 -66 12 -66 -28 0 -90 75 -127 154 -43
93 -75 243 -55 256 21 12 41 1 41 -24z m257 -447 c19 -20 47 -34 70 -38 30 -5
39 -11 41 -30 4 -23 2 -24 -43 -18 -50 5 -86 27 -118 69 -19 26 -17 48 6 48 6
0 26 -14 44 -31z"/>
<path d="M1115 985 c-38 -8 -88 -20 -110 -28 -36 -13 -38 -15 -20 -25 41 -21
177 -42 276 -42 103 0 195 17 253 47 l31 16 -25 9 c-94 36 -281 46 -405 23z"/>
</g>
</svg>
